name rise49.8558peak67.6521fall70.3087.mot
datacolumns 19
datarows 23
range 16.28160300000000 16.31826800000000
endheader
time	ground_force1_vx	ground_force1_vy	ground_force1_vz	ground_force1_px	ground_force1_py	ground_force1_pz	ground_force2_vx	ground_force2_vy	ground_force2_vz	ground_force2_px	ground_force2_py	ground_force2_pz	ground_torque1_x	ground_torque1_y	ground_torque1_z	ground_torque2_x	ground_torque2_y	ground_torque2_z	
16.28160300000000	-6.88587500000000	40.75069600000000	-9.90119700000000	0.37183100000000	0.00000000000000	0.09728900000000	-57.60095900000000	800.72464600000001	-56.20879800000000	0.17368000000000	0.00000000000000	-0.08719900000000	0.00000000000000	-7.64263700000000	0.00000000000000	0.00000000000000	-27.32941600000000	0.00000000000000	
16.28327900000000	-7.54916100000000	47.49669000000000	-11.09549900000000	0.37744700000000	0.00000000000000	0.09813400000000	-58.03435800000000	797.68911800000001	-55.81203000000000	0.17295200000000	0.00000000000000	-0.08710900000000	0.00000000000000	-8.65212700000000	0.00000000000000	0.00000000000000	-27.16771100000000	0.00000000000000	
16.28494000000000	-8.08126100000000	54.25948900000000	-12.16758600000000	0.38252200000000	0.00000000000000	0.09892000000000	-58.47668300000000	794.56346199999996	-55.39881700000000	0.17222600000000	0.00000000000000	-0.08701700000000	0.00000000000000	-9.58172900000000	0.00000000000000	0.00000000000000	-27.00488600000000	0.00000000000000	
16.28660600000000	-8.46334000000000	60.94722400000000	-13.09149700000000	0.38713300000000	0.00000000000000	0.09965400000000	-58.92810600000000	791.34713599999998	-54.96905600000000	0.17150200000000	0.00000000000000	-0.08692300000000	0.00000000000000	-10.40922400000000	0.00000000000000	0.00000000000000	-26.84103600000000	0.00000000000000	
16.28826800000000	-8.68421300000000	67.49243500000000	-13.85043000000000	0.39134200000000	0.00000000000000	0.10034200000000	-59.38873400000000	788.03947800000003	-54.52264400000000	0.17078100000000	0.00000000000000	-0.08682500000000	0.00000000000000	-11.11942900000000	0.00000000000000	0.00000000000000	-26.67624800000000	0.00000000000000	
16.28994400000000	-8.74023000000000	73.85392400000001	-14.43680500000000	0.39520400000000	0.00000000000000	0.10099100000000	-59.85860500000000	784.63971000000004	-54.05948200000000	0.17006200000000	0.00000000000000	-0.08672500000000	0.00000000000000	-11.70440900000000	0.00000000000000	0.00000000000000	-26.51059400000000	0.00000000000000	
16.29160500000000	-8.63456500000000	80.01613000000000	-14.85156700000000	0.39876000000000	0.00000000000000	0.10160400000000	-60.33768500000000	781.14693199999999	-53.57947500000000	0.16934600000000	0.00000000000000	-0.08662300000000	0.00000000000000	-12.16306300000000	0.00000000000000	0.00000000000000	-26.34413600000000	0.00000000000000	
16.29326900000000	-8.37607300000000	85.98650400000000	-15.10290500000000	0.40204900000000	0.00000000000000	0.10218600000000	-60.82586600000000	777.56012899999996	-53.08253500000000	0.16863300000000	0.00000000000000	-0.08651800000000	0.00000000000000	-12.50021700000000	0.00000000000000	0.00000000000000	-26.17692300000000	0.00000000000000	
16.29494300000000	-7.97787000000000	91.79143900000000	-15.20460200000000	0.40510100000000	0.00000000000000	0.10273900000000	-61.32296300000000	773.87816899999996	-52.56857900000000	0.16792300000000	0.00000000000000	-0.08641000000000	0.00000000000000	-12.72538400000000	0.00000000000000	0.00000000000000	-26.00899100000000	0.00000000000000	
16.29660300000000	-7.45582000000000	97.47134100000000	-15.17421000000000	0.40794100000000	0.00000000000000	0.10326700000000	-61.82870900000000	770.09980900000005	-52.03753700000000	0.16721600000000	0.00000000000000	-0.08629900000000	0.00000000000000	-12.85134900000000	0.00000000000000	0.00000000000000	-25.84036400000000	0.00000000000000	
16.29827300000000	-6.82705400000000	103.07541000000001	-15.03123300000000	0.41059400000000	0.00000000000000	0.10377200000000	-62.34275900000000	766.22369500000002	-51.48934800000000	0.16651200000000	0.00000000000000	-0.08618600000000	0.00000000000000	-12.89273500000000	0.00000000000000	0.00000000000000	-25.67105400000000	0.00000000000000	
16.29994100000000	-6.10864300000000	108.65659300000000	-14.79546600000000	0.41307700000000	0.00000000000000	0.10425600000000	-62.86468200000000	762.24836900000003	-50.92396700000000	0.16581100000000	0.00000000000000	-0.08607000000000	0.00000000000000	-12.86466800000000	0.00000000000000	0.00000000000000	-25.50105800000000	0.00000000000000	
16.30160100000000	-5.31650400000000	114.26709000000000	-14.48559800000000	0.41540700000000	0.00000000000000	0.10472000000000	-63.39396100000000	758.17227300000002	-50.34136100000000	0.16511400000000	0.00000000000000	-0.08595200000000	0.00000000000000	-12.78162300000000	0.00000000000000	0.00000000000000	-25.33036400000000	0.00000000000000	
16.30326800000000	-4.46458400000000	119.95466700000000	-14.11813200000000	0.41759900000000	0.00000000000000	0.10516600000000	-63.92999400000000	753.99375299999997	-49.74151800000000	0.16442000000000	0.00000000000000	-0.08583100000000	0.00000000000000	-12.65652500000000	0.00000000000000	0.00000000000000	-25.15894300000000	0.00000000000000	
16.30493600000000	-3.56433500000000	125.75992200000000	-13.70666700000000	0.41966400000000	0.00000000000000	0.10559600000000	-64.47209100000001	749.71106699999996	-49.12444200000000	0.16373000000000	0.00000000000000	-0.08570800000000	0.00000000000000	-12.50012900000000	0.00000000000000	0.00000000000000	-24.98675700000000	0.00000000000000	
16.30660200000000	-2.62447000000000	131.71453900000000	-13.26151800000000	0.42161400000000	0.00000000000000	0.10601000000000	-65.01947400000000	745.32239400000003	-48.49016200000000	0.16304500000000	0.00000000000000	-0.08558200000000	0.00000000000000	-12.32066300000000	0.00000000000000	0.00000000000000	-24.81375500000000	0.00000000000000	
16.30827400000000	-1.65097200000000	137.84049500000000	-12.78965300000000	0.42345700000000	0.00000000000000	0.10641000000000	-65.57127500000000	740.82583699999998	-47.83872900000000	0.16236300000000	0.00000000000000	-0.08545300000000	0.00000000000000	-12.12373600000000	0.00000000000000	0.00000000000000	-24.63987300000000	0.00000000000000	
16.30994400000000	-0.64730300000000	144.15009400000000	-12.29489300000000	0.42520200000000	0.00000000000000	0.10679700000000	-66.12654000000001	736.21943699999997	-47.17021900000000	0.16168600000000	0.00000000000000	-0.08532200000000	0.00000000000000	-11.91245600000000	0.00000000000000	0.00000000000000	-24.46503500000000	0.00000000000000	
16.31161100000000	0.38523900000000	150.64668699999999	-11.77830000000000	0.42685500000000	0.00000000000000	0.10717000000000	-66.68422700000001	731.50117699999998	-46.48473700000000	0.16101400000000	0.00000000000000	-0.08518800000000	0.00000000000000	-11.68771400000000	0.00000000000000	0.00000000000000	-24.28915500000000	0.00000000000000	
16.31328100000000	1.44705400000000	157.32588899999999	-11.23871300000000	0.42842300000000	0.00000000000000	0.10753200000000	-67.24320400000001	726.66899899999999	-45.78241500000000	0.16034600000000	0.00000000000000	-0.08505200000000	0.00000000000000	-11.44858700000000	0.00000000000000	0.00000000000000	-24.11213600000000	0.00000000000000	
16.31494200000000	2.53974800000000	164.17710900000000	-10.67334000000000	0.42991100000000	0.00000000000000	0.10788200000000	-67.80225799999999	721.72080900000003	-45.06341900000000	0.15968400000000	0.00000000000000	-0.08491400000000	0.00000000000000	-11.19279900000000	0.00000000000000	0.00000000000000	-23.93386900000000	0.00000000000000	
16.31660900000000	3.66562700000000	171.18523500000001	-10.07837000000000	0.43132300000000	0.00000000000000	0.10822100000000	-68.36008900000000	716.65449699999999	-44.32794700000000	0.15902600000000	0.00000000000000	-0.08477300000000	0.00000000000000	-10.91720400000000	0.00000000000000	0.00000000000000	-23.75423600000000	0.00000000000000	
16.31826800000000	4.82723700000000	178.33230000000000	-9.44954500000000	0.43266400000000	0.00000000000000	0.10855000000000	-68.91531900000000	711.46794299999999	-43.57623100000000	0.15837400000000	0.00000000000000	-0.08462900000000	0.00000000000000	-10.61824700000000	0.00000000000000	0.00000000000000	-23.57310800000000	0.00000000000000	
